<?xml version="1.0" encoding="utf-8"?>
<!-- Generator: Adobe Illustrator 16.0.0, SVG Export Plug-In . SVG Version: 6.00 Build 0)  -->
<!DOCTYPE svg PUBLIC "-//W3C//DTD SVG 1.1//EN" "http://www.w3.org/Graphics/SVG/1.1/DTD/svg11.dtd">
<svg version="1.1" xmlns="http://www.w3.org/2000/svg" xmlns:xlink="http://www.w3.org/1999/xlink" x="0px" y="0px"
	 width="454.19px" height="456.785px" viewBox="0 0 454.19 456.785" enable-background="new 0 0 454.19 456.785"
	 xml:space="preserve">
<g id="Extras" display="none">
</g>
<g id="Fonts">
</g>
<g id="Logos">
	<g>
		<path fill="#FFFFFF" d="M227.098,1.646C101.674,1.646,0,103.319,0,228.742c0,125.42,101.674,227.094,227.098,227.094
			c125.416,0,227.094-101.674,227.094-227.094C454.191,103.319,352.514,1.646,227.098,1.646z M386.954,359.838
			c-0.503-0.854-0.994-1.823-1.45-2.951c-2.367-5.674-3.883-14.238-4.891-23.414l-0.348-3.646c-0.123-1.537-0.244-3.07-0.423-4.615
			c-0.343-3.082-0.818-6.17-1.456-9.258c-1.236-6.172-3.131-12.326-5.713-18.266c-2.625-5.932-5.947-11.658-10.068-16.871
			c-4.158-5.182-9.063-9.912-14.761-13.564c-2.87-1.857-5.726-3.4-9.018-4.762c-0.852-0.338-1.923-0.785-2.367-0.895l-0.874-0.275
			l-0.217-0.07c0.033,0.02-0.668-0.262-0.442-0.166l-0.148-0.043l-0.591-0.178c-1.564-0.486-3.141-0.9-4.725-1.227
			c-6.337-1.314-12.773-1.467-19.006-0.41c-6.227,1.059-12.238,3.412-17.354,6.902c-5.133,3.492-9.197,8.098-12.057,12.908
			c-1.408,2.426-2.527,4.893-3.445,7.336c-0.4,1.229-0.857,2.439-1.157,3.654l-0.481,1.801l-0.414,1.93
			c-0.314,1.398-0.352,2.191-0.516,3.234l-0.049,0.371c0.037-0.16-0.058,0.32-0.058,0.311l-0.016,0.113l-0.021,0.225l-0.088,0.893
			l-0.163,1.773c-0.115,2.383-0.146,4.727,0.101,7.047c0.399,4.619,1.668,9.043,3.512,12.895c1.892,3.84,4.348,7.125,7.093,9.662
			c5.485,5.145,11.675,7.463,16.722,8.223c5.105,0.764,9.131,0.061,11.717-0.648c2.853-0.82,3.691-1.393,3.77-1.371
			c1.58-0.5,2.461-2.197,1.958-3.783c-0.5-1.588-2.192-2.469-3.783-1.965c0.06-0.045-1.417,0.396-3.166,0.473
			c-1.993,0.125-5.002,0.004-8.437-1.285c-3.398-1.26-7.265-3.693-10.025-7.621c-2.785-3.881-4.301-9.084-3.631-14.842
			c0.121-1.432,0.458-2.912,0.82-4.4l0.336-1.123l0.169-0.561l0.04-0.143l0.024-0.069c-0.01,0.047-0.065,0.319-0.021,0.132
			l0.113-0.354c0.318-0.889,0.656-2.068,0.945-2.598l0.431-0.998l0.529-1.098c0.323-0.748,0.757-1.41,1.119-2.121
			c0.832-1.35,1.728-2.621,2.716-3.768c2.544-2.925,5.667-4.968,9.222-6.066c0.459-0.142,0.925-0.261,1.397-0.372
			c1.022-0.24,2.081-0.398,3.165-0.486c0.58-0.049,1.162-0.09,1.763-0.093c3.08-0.018,6.314,0.609,9.286,1.818
			c0.741,0.297,1.468,0.635,2.177,1l0.262,0.137l0.065,0.037c0.296,0.123-0.331-0.133-0.226-0.084l0.197,0.109l0.811,0.434
			c0.679,0.338,0.689,0.455,0.943,0.637c0.446,0.327,0.937,0.709,1.43,1.113c-1.78,1.496-1.821,5.05-0.007,8.309
			c1.97,3.525,5.365,5.373,7.606,4.127c0.045-0.024,0.083-0.058,0.126-0.084c0.135-0.03,0.27-0.065,0.398-0.113
			c0.877,2.52,1.496,5.202,1.828,7.973c0.008,0.067,0.012,0.136,0.02,0.202c-0.862,0.629-1.619,1.553-2.22,2.688
			c-1.856,1.385-3.173,4.328-3.241,7.764c-0.081,4.306,1.818,7.907,4.406,8.671c-0.011,0.05-0.021,0.1-0.03,0.149l-0.613,3.746
			c-0.345,2.229-0.683,4.481-0.993,6.767c-0.022,0.011-0.046,0.02-0.067,0.03c-0.1,0.041-0.199,0.088-0.297,0.137
			c-0.102,0.041-0.208,0.09-0.306,0.137c-0.089,0.036-0.175,0.083-0.262,0.125c-2.824,0.954-5.06,4.821-5.249,9.539
			c-0.199,4.879,1.835,9.026,4.72,10.055c0.014,2.411,0.102,4.883,0.291,7.432c0.115,1.417,0.271,2.864,0.463,4.33
			c-0.18,0.038-0.361,0.067-0.538,0.127c-0.071,0.024-0.138,0.061-0.207,0.088c-0.001,0-0.001,0-0.001,0
			c-3.696,1.227-5.12,6.961-3.177,12.799c0.175,0.523,0.376,1.023,0.591,1.511c0.066,0.17,0.135,0.335,0.206,0.503
			c0.078,0.201,0.159,0.395,0.242,0.592c0.076,0.199,0.16,0.396,0.246,0.592c2.107,5.403,6.411,8.829,10.144,8.044
			c0.729,1.379,1.508,2.735,2.332,4.065c-21.327,14.759-45.559,25.614-71.671,31.524c0.147-0.435,0.282-0.881,0.427-1.319
			c0.078,0.009,0.155,0.028,0.235,0.033c0.113,0.008,0.222-0.002,0.338-0.002l0.014,0.002c4.286,0.307,8.146-4.77,8.64-11.334
			c0.028-0.385,0.048-0.768,0.048-1.148c0-0.059,0-0.117,0-0.178c0-0.234-0.01-0.467-0.02-0.697c0.021-0.602,0.02-1.191-0.018-1.764
			c0.032-0.521,0.034-1.033,0.022-1.539c0.152-4.644-1.533-8.655-4.119-10.235c0.109-1.957,0.173-3.922,0.17-5.891
			c2.939-1.148,5.011-5.193,4.981-10.011c0.005-0.239,0.013-0.477,0.014-0.72c0.097-0.826,0.135-1.686,0.092-2.573
			c-0.24-4.859-2.627-8.81-5.585-9.584c-0.482-0.149-0.979-0.226-1.486-0.201c-0.02,0.002-0.03,0.006-0.049,0.008
			c-0.071,0-0.14-0.01-0.214-0.008c-0.138,0.007-0.271,0.04-0.405,0.06c-0.051-0.217-0.104-0.434-0.152-0.651l-0.396-1.639
			l-0.199-0.818l-0.1-0.41l-0.051-0.203c-0.507-1.568-1.138-3.611-1.138-3.611l-0.191-0.443c0.22-0.249,0.415-0.526,0.591-0.828
			c2.008-1.661,2.564-5.533,1.177-9.434c-0.161-0.451-0.348-0.881-0.546-1.296c-1.586-3.764-4.53-6.192-7.136-5.974
			c-0.491-0.022-0.971,0.015-1.438,0.161c-1.636-2.922-3.432-5.705-5.318-8.36c1.33-2.112,0.996-5.774-1.03-9.109
			c-0.024-0.041-0.053-0.078-0.078-0.119c-0.184-0.374-0.38-0.747-0.604-1.115c-2.12-3.469-5.35-5.471-7.924-5.191
			c-0.324-0.037-0.635-0.033-0.936-0.014c-0.219-0.02-0.429-0.023-0.637-0.02c-0.367-0.025-0.719,0-1.066,0.053
			c-0.384-0.049-0.758-0.051-1.125-0.029c-4.581-4.462-9.188-8.368-13.592-11.955c-1.404-1.151-2.79-2.275-4.161-3.375
			c-4.646-3.729-9.119-7.188-13.474-10.434c-11.19-8.443-21.099-16.385-27.327-25.197c-0.394-0.545-0.743-1.096-1.122-1.645
			l-0.279-0.416l-0.133-0.207l-0.074-0.105c-0.157-0.283,0.143,0.273,0.077,0.16l-0.666-1.148l-0.794-1.396
			c-0.274-0.527-0.551-1.057-0.799-1.604c-1.04-2.172-1.787-4.539-2.402-6.98c-1.219-4.896-1.568-10.209-1.092-15.475
			c0.459-5.264,1.688-10.49,3.563-15.318c1.889-4.824,4.409-9.242,7.366-13.016c5.948-7.574,13.505-12.379,22.116-14.098
			c0.537-0.127,1.082-0.209,1.624-0.305l0.411-0.072c-0.949,0.023-0.182,0-0.354,0l0.141-0.012l0.279-0.023l1.127-0.1l1.121-0.104
			c0.346-0.027,0.832-0.08,0.977-0.072c0.428-0.016,0.859-0.039,1.297-0.072c0.402-0.059,0.93-0.035,1.461-0.016l1.58,0.035
			c1.013,0.141,2.075,0.137,3.061,0.359c2.031,0.266,3.926,0.883,5.842,1.457c1.83,0.725,3.688,1.459,5.343,2.508
			c6.753,3.992,11.892,10.326,14.728,16.898c3.007,6.559,3.918,13.207,3.91,18.703c-0.056,5.523-0.959,9.969-1.772,12.947
			c-0.358,1.518-0.783,2.635-1.031,3.408c-0.255,0.775-0.39,1.174-0.39,1.174l-0.09,0.275c-0.472,1.414,0.011,3.027,1.287,3.936
			c1.572,1.117,3.749,0.75,4.865-0.818c0,0,0.273-0.391,0.809-1.139c0.521-0.754,1.368-1.855,2.281-3.41
			c1.883-3.066,4.424-7.85,6.207-14.609c0.84-3.373,1.59-7.232,1.768-11.527c0.168-4.293-0.108-9.012-1.115-14.012
			c-1.025-4.992-2.839-10.242-5.676-15.438c-2.822-5.191-6.693-10.34-11.809-14.758c-2.506-2.277-5.391-4.23-8.434-6.096
			c-3.102-1.738-6.402-3.363-9.938-4.473c-1.75-0.654-3.567-1.041-5.394-1.547c-0.923-0.182-1.844-0.363-2.775-0.549
			c-0.92-0.176-1.847-0.354-2.924-0.453c-1.049-0.109-2.1-0.219-3.152-0.328c-0.604-0.063-0.865-0.064-1.262-0.096l-1.127-0.066
			l-1.132-0.072l-0.28-0.02l-0.141-0.01c-0.268,0.002,0.399-0.021-0.641,0.008l-0.717,0.002c-0.969,0.01-1.938,0.01-2.912,0.066
			c-7.799,0.365-16.011,2.285-23.584,5.951c-7.617,3.615-14.513,8.891-20.273,15.131c-5.732,6.277-10.383,13.5-13.797,21.277
			c-3.451,7.764-5.792,16.061-6.861,24.664c-1.055,8.592-0.969,17.504,0.666,26.441c0.813,4.467,2.049,8.92,3.669,13.314
			c0.392,1.1,0.831,2.188,1.286,3.275c0.203,0.516,0.527,1.191,0.789,1.777l0.75,1.602l0.572,1.195l0.932,1.732
			c0.527,0.973,1.035,1.971,1.586,2.922c2.169,3.832,4.6,7.373,7.025,10.816c2.446,3.387,5.018,6.555,7.539,9.623
			c2.523,3.033,5.08,5.941,7.561,8.719c2.411,2.709,4.813,5.41,7.207,8.1c2.308,2.625,4.502,5.207,6.545,7.689
			c2.075,2.486,3.938,4.941,5.544,7.398c3.234,4.904,5.243,9.822,5.938,14.186c0.635,4.379-0.133,8.09-1.522,11.035
			c0,0-0.679,1.674-1.526,3.305c-0.872,1.674-1.912,3.311-2.022,3.527c-0.452,0.854-0.763,1.713-1.226,2.484
			c-3.451,6.301-6.898,10.01-10.463,13.789c-3.568,3.701-7.615,7.307-11.871,10.879c-4.25,3.555-8.557,6.982-12.344,10
			c-3.763,2.992-7.086,5.674-9.174,7.438c-0.183,0.157-0.354,0.3-0.528,0.447c-11.854-4.454-23.186-9.969-33.888-16.422
			c0.735-0.69,1.479-1.386,2.205-2.105c3.77-3.607,7.432-7.621,10.943-11.955c6.982-8.691,13.488-18.9,17.783-30.998
			c2.168-6.004,3.721-12.48,4.324-19.186c0.207-1.537,0.285-3.623,0.353-5.535l0.06-2.902c-0.024-0.74-0.08-1.227-0.116-1.852
			l-0.132-1.777l-0.033-0.445l-0.02-0.223l-0.007-0.107c0.003,0.762-0.016-1.164-0.018-1.021l-0.137-1.123
			c-0.187-1.5-0.354-2.998-0.578-4.486c-1.856-11.936-5.944-23.682-12.28-33.877c-6.313-10.201-14.664-18.887-24.516-25.133
			c-4.936-3.115-10.301-5.594-16.03-7.232c-5.691-1.664-11.946-2.324-18.288-1.479c-3.18,0.482-6.363,1.254-9.388,2.631
			c-1.374,0.531-3.372,1.656-4.97,2.652c-0.553,0.385-0.814,0.629-1.229,0.947l-0.57,0.455c-0.295,0.205,0.555-0.375-0.677,0.473
			l-0.085,0.082l-0.177,0.168l-0.346,0.336c-0.912,0.895-1.816,1.785-2.712,2.666l-1.312,1.32c-0.409,0.486-0.799,1.004-1.193,1.5
			c-0.77,1.004-1.528,1.998-2.275,2.986c-0.75,0.969-1.314,2.154-1.937,3.209c-2.556,4.232-3.783,9.047-4.423,13.424
			c-0.068,1.113-0.129,2.207-0.191,3.289c-0.014,0.535-0.031,1.066-0.049,1.594c0.035,0.521,0.082,1.043,0.117,1.559
			c0.092,1.025,0.172,2.033,0.294,3.01c0.157,0.973,0.415,1.906,0.619,2.824c1.797,7.342,5.346,12.643,8.814,16.295
			c0.806,0.955,1.79,1.711,2.608,2.457c0.805,0.76,1.713,1.355,2.52,1.908c1.486,1.117,3.299,1.988,4.602,2.594
			c0.706,0.367,1.117,0.404,1.549,0.539c0.414,0.117,0.768,0.215,1.049,0.291c0.558,0.154,0.855,0.236,0.855,0.236
			c1.406,0.391,2.977-0.072,3.939-1.295c1.28-1.625,1-3.977-0.631-5.258l-0.014-0.014c0,0-0.236-0.184-0.695-0.547
			c-0.23-0.18-0.516-0.408-0.859-0.674c-0.309-0.264-0.826-0.582-0.987-0.918c-0.869-1.141-2.636-3.334-3.958-6.418
			c-1.327-3.061-2.279-7.135-1.914-11.289c0.063-0.52,0.066-1.035,0.155-1.549c0.144-0.512,0.243-1.018,0.353-1.527l0.15-0.758
			l0.285-0.73c0.191-0.486,0.373-0.971,0.539-1.457c0.994-1.85,2.049-3.604,3.727-5.127c1.457-1.604,3.617-2.914,5.898-4.176
			l0.209-0.123c0,0,0.597-0.195,0.795-0.244c0.209-0.051,0.744-0.137,0.859-0.139h0.267c0.053-0.008,0.116,0.004,0.168,0
			c0.64-0.049,1.394,0.043,2.188,0.143c1.79,0.336,3.975,1.014,6.311,2.293c2.317,1.258,4.721,2.977,6.941,5.131
			c2.713,2.615,5.144,5.774,7.159,9.265c-0.234,0.356-0.427,0.763-0.598,1.191c-1.342,1.878-1.721,5.06-0.772,8.339
			c1.259,4.352,4.383,7.317,7.187,6.958c0.569,3.368,0.818,6.811,0.735,10.279c-2.269,0.663-4.53,3.136-5.666,6.513
			c-1.333,3.948-0.692,7.834,1.374,9.444c-0.223,0.404-0.439,0.809-0.676,1.212c-1.785,3.085-4.084,6.1-6.719,8.968
			c-0.023-0.024-0.042-0.053-0.066-0.077c-2.168-2.145-6.675-1.102-10.057,2.322c-2.406,2.438-3.594,5.42-3.304,7.713
			c-0.009,0.234-0.017,0.468,0,0.691c-0.024,0.323-0.01,0.628,0.011,0.932c-2.777,1.96-5.637,3.774-8.513,5.418
			c-1.035,0.581-2.065,1.124-3.094,1.669c-34.648-36.965-55.88-86.652-55.88-141.315c0-0.839,0-1.649,0-2.445
			c2.773,2.06,5.986,4.082,8.924,5.715c0,0.177,0.001,0.354,0.01,0.531c-0.014,0.254-0.014,0.514,0,0.768
			c-0.014,0.211-0.014,0.42-0.003,0.629c-0.005,0.12,0.007,0.241,0.009,0.361c-0.283,4.13,4.02,8.724,10.344,10.723
			c6.986,2.189,13.787,0.404,15.177-4.027c0.032-0.103,0.046-0.207,0.071-0.311c0.834,0.139,1.67,0.271,2.489,0.383l0.759,0.104
			l0.372,0.051l0.213,0.002h0.839l1.682,0.002h0.841l0.208,0.002c-0.79-0.174,1.305,0.24,1.203,0.199l0.602,0.01l2.374,0.025
			c0.722,0.008,1.458-0.007,2.196-0.029c1.135,2.858,4.91,4.866,9.546,5.118c0.634,0.036,1.283,0.036,1.944,0.001
			c0.26-0.013,0.52-0.022,0.782-0.047c6.465-0.608,11.425-4.35,11.216-8.439c0-0.032,0.007-0.063,0.007-0.096
			c0.003-0.05-0.001-0.101-0.001-0.151c2.582-0.766,5.133-1.65,7.626-2.669c1.525-0.608,3.024-1.267,4.496-1.971
			c1.887,2.398,6.554,2.499,10.832,0.117c3.858-2.163,6.161-5.654,5.779-8.428c0.01-0.209,0.011-0.416-0.004-0.619
			c0.041-0.398,0.033-0.785-0.008-1.162c0.027-0.24,0.039-0.477,0.038-0.71c3.23-2.734,6.172-5.673,8.777-8.729
			c2.374,1.491,6.333-0.106,9.007-3.697c1.758-2.38,2.524-5.047,2.229-7.114c0.066-0.648,0.064-1.271-0.019-1.847
			c0.09-0.787,0.079-1.533-0.031-2.219c0.085-0.646,0.087-1.252,0.052-1.838c7.139-13.699,10.137-27.722,12.227-40.132
			c1.464-8.557,2.794-16.621,4.633-23.697c1.205-4.84,2.657-9.109,4.348-12.792c0.797-1.726,1.635-3.331,2.538-4.784
			c0.717-1.141,1.457-2.217,2.234-3.242c0.376-0.521,0.799-1.004,1.205-1.5l0.502-0.59l0.238-0.289
			c0.061-0.084,0.283-0.311,0.42-0.457c2.011-2.09,3.992-4.082,6.014-5.666c3.983-3.303,7.928-5.533,11.74-6.406
			c3.781-0.902,7.533-0.641,10.955,0.639c3.403,1.262,6.283,3.639,7.965,5.959c0.445,0.58,0.75,1.152,1.035,1.693
			c0.098,0.182,0.089,0.16,0.137,0.205c0.045,0.035,0.096,0.066,0.16,0.107c0.058,0.242,0.117,0.604,0.183,0.896l0.087,0.467
			l0.022,0.113c-0.009-0.178,0.059,0.557-0.016-0.367l0.033,0.162c0.274,1.727,0.407,3.471,0.365,5.172
			c-0.1,3.408-0.968,6.563-2.104,9.215c-2.341,5.361-5.94,8.258-8.615,9.482c-1.319,0.646-2.593,0.945-3.169,1.102
			c-0.873,0.156-1.562,0.182-1.516,0.191c-2.446-0.135-4.529,1.732-4.666,4.172c-0.135,2.441,1.734,4.529,4.174,4.664
			c0.046-0.006,0.441,0.133,1.689,0.332c1.539,0.178,3.438,0.309,6.106-0.023c2.617-0.354,5.85-1.277,9.191-3.16
			c3.34-1.877,6.735-4.723,9.709-8.527c2.979-3.801,5.444-8.613,6.979-14.299c0.749-2.848,1.244-5.922,1.321-9.176
			c-0.018-0.82-0.033-1.646-0.051-2.479l-0.218-1.771c-0.084-0.578-0.185-1.236-0.289-1.668c-0.414-1.939-0.977-3.861-1.743-5.656
			c-2.989-7.285-8.449-13.402-15.61-17.748c-3.58-2.172-7.619-3.87-11.958-4.916c-4.343-1.034-8.974-1.363-13.579-0.978
			c-9.269,0.779-18.133,4.507-25.441,9.671c-3.701,2.598-6.99,5.555-10.011,8.762l-0.507,0.549l-0.662,0.754
			c-0.426,0.496-0.902,1.027-1.283,1.504c-0.734,0.949-1.485,1.898-2.17,2.896c-1.418,1.967-2.689,4.045-3.803,6.186
			c-2.256,4.279-4.014,8.725-5.259,13.117c-1.29,4.398-2.144,8.725-2.916,12.9c-1.431,8.379-2.488,16.293-4.426,23.793
			c-1.864,7.405-4.579,14.04-8.595,19.671c-3.926,5.625-9.006,9.998-14.354,12.215c-5.345,2.318-10.756,2.279-15.551,1.107
			c-2.416-0.574-4.776-1.531-7.093-2.623c-1.161-0.561-2.304-1.16-3.462-1.803c-0.582-0.334-1.146-0.627-1.73-1.006l-0.863-0.508
			c0,0-3.031-2.289-3.199-2.568c-0.3-0.357-0.595-0.693-0.881-1.002c-0.223-0.365-0.439-0.676-0.662-0.957
			c-0.74-1.26-0.957-2.271-0.994-3.186c-0.051-0.898,0.021-1.727,0.059-2.842c0.041-1.404,0.081-2.809,0.123-4.205
			c0.14-3.451,0.507-8.181,1.539-13.478c1.045-5.309,2.471-11.115,4.401-17.008c3.806-11.82,9.274-23.789,14.982-34.959
			c5.759-11.188,12.163-21.533,18.27-30.83c3.742-5.603,7.449-10.789,11.016-15.546c22.986-13.923,48.905-23.485,76.61-27.561
			c-0.042,1.722-0.028,3.423,0.088,5.097c0.131,2.076,0.384,4.055,0.74,6.344c0.08,0.625,0.176,0.896,0.265,1.306l0.28,1.142
			l0.032,0.144c0-0.041,0.052,0.595,0.044,0.372l0.02,0.092l0.076,0.373l0.161,0.736c0.11,0.492,0.214,0.983,0.347,1.475
			c1.967,7.824,5.527,15.399,10.76,21.59c5.196,6.18,12.146,10.966,19.922,12.902c0.979,0.246,1.925,0.428,2.953,0.588
			c0.541,0.08,1.16,0.172,1.634,0.217l0.546,0.018l0.268,0.012l0.137,0.006l0.064,0.004c-0.021-0.006,0.436,0.064,0.277,0.033
			c1.65,0.012,3.281-0.057,4.896-0.164c3.22-0.183,6.376-0.697,9.444-1.43c3.063-0.772,6.067-1.865,8.861-3.525
			c2.758-1.661,5.383-4.031,6.86-7.041c0.766-1.475,1.233-3.033,1.451-4.527c0.114-0.701,0.159-1.583,0.169-2.314l-0.027-0.813
			c-0.004-0.551-0.062-0.818-0.096-1.233c-0.436-3.022-1.809-5.394-3.38-7.218c-3.155-3.657-7.52-5.23-11.136-5.002
			c-1.803,0.109-3.373,0.576-4.592,1.173c-1.222,0.604-2.148,1.257-2.852,1.81c-1.556,1.314-1.848,1.724-1.918,1.751
			c-1.12,1.208-1.054,3.098,0.15,4.219c1.211,1.124,3.1,1.058,4.219-0.149c-0.035,0.063,0.605-0.789,1.261-1.361
			c0.812-0.736,2.171-1.625,3.98-1.682c0.618-0.032,1.317,0.086,2.026,0.34c0.463,0.032,0.911,0.057,1.33,0.057
			c-0.419,0-0.871-0.024-1.334-0.057c1.34,0.473,2.729,1.447,3.731,2.961c0.755,1.127,1.225,2.525,1.138,3.74
			c-0.051,0.385-0.096,0.774-0.145,1.17c-0.1,0.346-0.16,0.557-0.297,0.938c-0.254,0.677-0.592,1.27-1.034,1.787
			c-0.693,0.83-1.763,1.498-3.073,1.993c-0.003-0.025,0.005-0.051,0.002-0.077c-0.219-1.678-2.547-2.756-5.203-2.416
			c-2.386,0.314-4.209,1.679-4.393,3.175c-1.366-0.184-2.759-0.45-4.16-0.794c-1.176-0.298-2.354-0.668-3.523-1.077
			c-0.015-0.003-0.02-0.004-0.028-0.005c0-0.001,0-0.002,0.001-0.003c0.063,0.009,0.218,0.033,0.172,0.024l-0.063-0.023
			l-0.083-0.024c0.003-0.003,0.006-0.004,0.009-0.007c1.557-1.627,0.737-4.937-1.837-7.396c-2.557-2.439-5.875-3.116-7.447-1.518
			c-0.243-0.481-0.471-0.973-0.679-1.475c-0.705-1.651-1.214-3.403-1.552-5.209c0.051-0.039,0.104-0.073,0.155-0.113
			c0.332-0.164,0.664-0.355,0.982-0.6c0.111-0.07,0.218-0.162,0.327-0.241c2.213-0.931,4.156-3.771,4.787-7.374
			c0.787-4.609-0.861-8.767-3.715-9.479c0.289-0.54,0.588-1.064,0.907-1.559c0.953-1.454,2.058-2.696,3.269-3.815
			c12.52,0.348,24.753,1.828,36.62,4.308c0.265,1.171,0.526,2.344,0.845,3.497c3.515,13.164,9.668,24.958,16.804,35.435
			c0.714,1.055,1.458,2.076,2.194,3.107c-0.021-0.02-0.043-0.039-0.064-0.059c0.232,0.327,0.475,0.646,0.709,0.971
			c0.403,0.555,0.806,1.11,1.215,1.66c4.015,5.414,8.299,10.529,12.674,15.396c0.104,0.116,0.209,0.233,0.314,0.351
			c1.307,1.448,2.617,2.882,3.934,4.287c0.566,0.605,1.133,1.201,1.699,1.798c-1.934,1.984-1.604,6.192,0.899,9.857
			c1.407,2.06,3.224,3.536,4.999,4.248c0.291,0.159,0.584,0.306,0.876,0.426c1.493,0.75,2.994,1.012,4.262,0.66
			c0.62,1.45,1.124,2.916,1.503,4.396c-0.184-0.032-0.371-0.05-0.562-0.053c-3.053-0.041-5.574,3.832-5.644,8.646
			c-0.047,3.453,1.186,6.445,3.008,7.886c0.229,0.294,0.467,0.569,0.724,0.806c0.343,0.431,0.717,0.801,1.115,1.104
			c-0.719,1.883-1.599,3.757-2.619,5.593c-0.158-0.191-0.328-0.374-0.525-0.531c-2.385-1.904-6.756-0.389-9.76,3.373
			c-2.653,3.325-3.355,7.293-1.838,9.487c0.097,0.462,0.229,0.902,0.438,1.29c0.009,0.036,0.022,0.068,0.032,0.104
			c-1.683,1.216-3.385,2.186-5.005,2.822c-1.69,0.647-3.223,1.002-4.717,1.1c-0.037-0.414-0.146-0.832-0.347-1.245
			c0.211-1.975-1.797-4.231-4.806-5.253c-2.981-1.008-5.909-0.465-6.975,1.187c-0.378-0.344-0.755-0.697-1.124-1.075
			c-0.671-0.689-1.325-1.367-1.86-2.004l-0.432-0.48l-0.219-0.24l-0.272-0.363l-1.071-1.432c-0.498-0.582-1.076-1.453-1.542-2.16
			c-1.953-2.99-3.163-5.916-3.78-8.609c-0.587-2.705-0.454-5.203,0.209-7.617c0.11-0.391,0.256-0.77,0.405-1.148
			c0.125-0.332,0.248-0.665,0.397-0.988c0.731-1.609,1.734-3.127,2.909-4.5c3.417-3.947,8.063-6.467,11.992-7.648
			c3.983-1.262,7.337-1.275,9.538-1.045c1.121,0.113,1.967,0.305,2.442,0.387c0.673,0.205,1.013,0.309,1.013,0.309l0.04,0.014
			c1.481,0.451,3.144-0.076,4.071-1.412c1.158-1.656,0.748-3.941-0.914-5.1c0,0-0.303-0.215-0.89-0.623
			c-0.804-0.479-1.869-1.115-3.343-1.771c-2.96-1.287-7.662-2.627-13.712-2.342c-5.987,0.313-13.416,2.084-20.659,7.439
			c-3.574,2.688-7.029,6.402-9.561,11.225c-2.593,4.789-3.85,10.752-3.623,16.672c0.213,5.945,1.936,11.74,4.409,16.959
			c0.64,1.35,1.238,2.525,2.044,3.932l0.86,1.57l0.212,0.395l0.311,0.494l0.61,0.983c0.83,1.359,1.69,2.582,2.562,3.795
			c0.883,1.227,1.863,2.439,2.89,3.646c4.159,4.756,9.839,9.438,17.253,12.17c3.679,1.352,7.707,2.154,11.74,2.27
			c4.036,0.117,8.036-0.41,11.795-1.396c7.547-2.002,14.041-5.703,19.701-10.145c1.422-1.115,2.774-2.299,4.1-3.52l0.978-0.938
			l0.48-0.471l0.241-0.238l0.342-0.352l0.74-0.758c0.234-0.238,0.482-0.49,0.82-0.871c1.318-1.436,2.408-2.689,3.507-4.054
			c1.098-1.35,2.167-2.74,3.182-4.184c4.075-5.754,7.528-12.281,9.858-19.521c2.386-7.201,3.526-15.174,3.055-23.088
			c-0.416-7.92-2.297-15.684-5.192-22.689c-2.892-6.988-6.724-13.334-10.734-18.952c-3.173-4.48-5.932-8.813-8.483-13.13
			c-1.539-2.641-2.928-5.262-4.21-7.852c31.479,17.641,57.87,43.272,76.422,74.157c1.975,6.343,4.172,14.405,5.906,23.683
			c0.094,0.503,0.176,1.031,0.268,1.542c-3.119,0.913-4.934,5.529-4.093,10.66c0.761,4.638,3.446,8.174,6.356,8.719
			c0.158,3.29,0.208,6.637,0.102,9.998c-2.938,0.001-5.601,3.597-6.034,8.262c-0.401,4.343,1.265,8.124,3.827,9.067
			c0.02,0.008,0.038,0.018,0.058,0.025c-0.231,0.982-0.479,1.957-0.762,2.915c-0.463,1.627-0.978,3.235-1.556,4.808
			c-0.102-0.062-0.203-0.123-0.312-0.173c-2.463-1.127-5.905,1.121-7.675,5.016c-1.57,3.429-1.324,6.991,0.445,8.563l-0.029,0.037
			l-1.589,2.004l-1.797,1.746c-0.621,0.564-1.156,1.277-1.836,1.754l-2,1.557l-1.004,0.807c-0.083,0.056-0.174,0.105-0.259,0.158
			c-0.021-0.021-0.037-0.043-0.058-0.063c-0.005-0.023-0.01-0.051-0.021-0.072c-0.081-0.167-0.183-0.32-0.293-0.466
			c-1.256-1.879-4.703-2.162-7.957-0.571c-3.393,1.652-5.303,4.714-4.345,6.884l-0.109,0.026l-2.625,0.645l-2.682,0.381
			c-0.569,0.114-1.14,0.176-1.712,0.223c-0.064-0.239-0.152-0.476-0.281-0.701c-0.011-0.05-0.039-0.098-0.052-0.147
			c-0.433-2.089-3.144-3.845-6.551-4.071c-3.824-0.262-7.053,1.492-7.215,3.908c-0.003,0.033,0.002,0.065,0.001,0.098l-0.319-0.07
			c-0.894-0.15-1.686-0.43-2.5-0.688c-0.791-0.275-1.682-0.465-2.382-0.822c-0.735-0.314-1.474-0.625-2.204-0.938
			c-0.463-0.26-0.958-0.48-1.491-0.684l-0.208-0.076c-0.084-0.059-0.199-0.164-0.305-0.242l-0.609-0.498l-0.008-0.012l-1.248-1.021
			l-0.311-0.25l-0.152-0.131l-0.08-0.063c0.224,0.24,0.349,0.374,0.417,0.446l-0.412-0.415l-0.836-0.826
			c-2.161-2.238-3.833-4.859-4.876-7.607c-2.14-5.51-1.645-11.34,1.189-15.309c0.354-0.502,0.785-0.938,1.151-1.43
			c0.387-0.469,0.754-0.695,1.108-1.1l0.266-0.283c0.125-0.102,0.342-0.219,0.504-0.326l1.042-0.662l0.524-0.328l0.259-0.16
			l0.124-0.084l0.066-0.037c-0.16,0.072-0.244,0.115-0.285,0.137c0.033-0.018,0.064-0.035,0.021-0.014l0.861-0.416
			c2.285-1.16,4.544-1.85,6.676-1.895c4.267-0.166,8.096,1.793,10.693,4.189c2.657,2.336,4.338,4.895,5.303,6.518
			c0.496,0.77,0.871,1.588,1.123,2.088c0.251,0.508,0.373,0.768,0.373,0.768c0.592,1.188,1.978,1.785,3.261,1.348
			c1.398-0.473,2.149-1.99,1.671-3.391c0,0-0.091-0.279-0.273-0.814c-0.191-0.543-0.413-1.297-0.931-2.467
			c-0.974-2.271-2.456-5.414-5.503-8.963c-1.518-1.75-3.438-3.59-5.988-5.113c-2.498-1.561-5.642-2.834-9.201-3.262
			c-3.558-0.477-7.392,0.063-11.016,1.24c-0.458,0.146-0.927,0.293-1.389,0.441c-0.482,0.217-0.965,0.432-1.455,0.648l-1.132,0.496
			c-0.203,0.092-0.364,0.146-0.589,0.27l-0.748,0.447c-0.979,0.615-2.09,1.256-2.951,1.955c-0.846,0.715-1.747,1.41-2.559,2.207
			c-3.275,3.213-5.772,7.557-7.038,12.313c-1.281,4.76-1.39,9.898-0.447,14.918c0.961,5.021,2.976,9.941,5.87,14.43l1.133,1.662
			l0.577,0.832c0.229,0.256-0.423-0.424,0.542,0.596l0.063,0.076l0.129,0.154l0.256,0.305l1.046,1.219l0.525,0.617
			c0.092,0.104,0.161,0.195,0.271,0.311l0.444,0.406c1.188,1.08,2.432,2.146,3.709,3.18c1.154,0.838,2.273,1.57,3.439,2.352
			c1.152,0.834,2.345,1.379,3.54,2.051c1.199,0.648,2.416,1.313,3.663,1.799c1.248,0.525,2.5,1.049,3.75,1.576
			c1.289,0.418,2.572,0.838,3.863,1.252c1.297,0.453,2.617,0.768,3.947,1.061c1.329,0.293,2.668,0.635,4.02,0.871
			c2.721,0.344,5.469,0.877,8.266,0.912c1.4,0.063,2.803,0.137,4.212,0.162l4.262-0.197l2.146-0.121
			c0.707-0.074,1.425-0.193,2.135-0.289l4.301-0.656c1.43-0.242,2.832-0.672,4.257-1.018c1.413-0.402,2.882-0.67,4.257-1.215
			l4.166-1.564c0.694-0.271,1.398-0.523,2.08-0.82l2.002-1l4.002-2.057c1.346-0.67,2.525-1.582,3.799-2.379l3.74-2.516
			c1.151-0.93,2.287-1.891,3.426-2.85l1.708-1.449l0.853-0.73l0.428-0.369l0.104-0.094c0.21-0.227-0.322,0.389,0.498-0.537
			l0.155-0.152l2.491-2.441c0.215-0.215,0.4-0.379,0.642-0.637l0.792-0.916l1.584-1.852l0.997-1.193
			c0,0.093,0.003,0.185,0.003,0.277C433.836,278.507,416.247,324.161,386.954,359.838z"/>
		<path fill="#FFFFFF" d="M305.14,87.761c-0.301-0.332-0.602-0.669-0.9-1.005c-0.005-0.005-0.01-0.01-0.014-0.015
			C304.53,87.08,304.835,87.425,305.14,87.761z"/>
	</g>
</g>
<g id="Layer_4">
</g>
</svg>
