<?xml version="1.0" encoding="utf-8"?>
<!-- Generator: Adobe Illustrator 16.0.0, SVG Export Plug-In . SVG Version: 6.00 Build 0)  -->
<!DOCTYPE svg PUBLIC "-//W3C//DTD SVG 1.1//EN" "http://www.w3.org/Graphics/SVG/1.1/DTD/svg11.dtd">
<svg version="1.1" xmlns="http://www.w3.org/2000/svg" xmlns:xlink="http://www.w3.org/1999/xlink" x="0px" y="0px"
	 width="565.551px" height="103.501px" viewBox="0 0 565.551 103.501" enable-background="new 0 0 565.551 103.501"
	 xml:space="preserve">
<g id="Extras" display="none">
</g>
<g id="Fonts">
</g>
<g id="Logos">
	<g>
		<path fill="#FFFFFF" d="M35.348,22.918c-10.596,0-19.23,3.354-25.662,9.968C3.257,39.485,0,49.447,0,62.498
			c0,12.699,3.257,22.484,9.686,29.081c6.432,6.614,15.066,9.969,25.662,9.969c10.803,0,19.544-3.354,25.981-9.968
			c6.426-6.601,9.684-16.386,9.684-29.082c0-13.047-3.258-23.01-9.684-29.611C54.893,26.272,46.15,22.918,35.348,22.918z
			 M44.131,77.876c-2.091,2.989-4.965,4.442-8.783,4.442c-3.606,0-6.379-1.454-8.472-4.442c-2.168-3.099-3.267-8.541-3.267-16.174
			c0-7.989,1.103-13.657,3.277-16.846c2.095-3.07,4.86-4.562,8.461-4.562c3.813,0,6.682,1.492,8.774,4.562
			c2.177,3.192,3.282,8.86,3.282,16.846C47.404,69.332,46.303,74.773,44.131,77.876z"/>
		<path fill="#FFFFFF" d="M143.683,77.843c-0.101-0.454-0.42-0.827-0.852-0.997c-0.166-0.064-0.338-0.096-0.511-0.096
			c-0.278,0-0.555,0.084-0.791,0.248c-2.398,1.656-5.304,2.877-8.644,3.631c-3.399,0.767-6.583,1.157-9.461,1.157
			c-6.801,0-11.334-2.033-13.856-6.218c-2.633-4.353-3.967-9.553-3.967-15.456c0-6.192,1.408-11.121,4.187-14.651
			c2.698-3.428,7.394-5.167,13.959-5.167c5.505,0,10.67,1.282,15.353,3.809c0.207,0.111,0.434,0.167,0.663,0.167
			c0.204,0,0.407-0.044,0.598-0.134c0.4-0.19,0.688-0.559,0.771-0.995l2.883-14.852c0.121-0.63-0.201-1.262-0.784-1.531
			c-5.502-2.549-12.702-3.841-21.404-3.841c-12.694,0-22.711,3.338-29.772,9.92c-7.097,6.601-10.693,16.58-10.693,29.66
			c0,12.337,3.195,22.025,9.5,28.792c6.326,6.806,15.236,10.257,26.482,10.257c5.663,0,11.138-0.825,16.273-2.452
			c5.192-1.646,9.413-3.983,12.548-6.946c0.356-0.337,0.51-0.836,0.405-1.315L143.683,77.843z"/>
		<path fill="#FFFFFF" d="M211.596,80.047c-0.089-0.462-0.407-0.85-0.841-1.028c-0.173-0.07-0.353-0.104-0.529-0.104
			c-0.279,0-0.556,0.084-0.794,0.248c-1.108,0.765-2.443,1.311-3.974,1.623c-1.596,0.33-3.224,0.497-4.841,0.497
			c-3.301,0-5.764-0.609-7.318-1.813c-1.447-1.118-2.182-3.491-2.182-7.053V43.035h19.108c0.77,0,1.392-0.625,1.392-1.395V27.173
			c0-0.77-0.622-1.395-1.392-1.395h-19.108V1.395c0-0.771-0.622-1.395-1.392-1.395h-22.1c-0.77,0-1.395,0.624-1.395,1.395v24.384
			h-13.02c-0.769,0-1.394,0.625-1.394,1.395v14.468c0,0.77,0.625,1.395,1.394,1.395h13.02v32.013c0,8.793,2.365,15.381,7.026,19.58
			c4.616,4.166,11.448,6.278,20.311,6.278c4.82,0,8.746-0.512,11.67-1.523c2.898-1.005,5.722-2.533,8.39-4.543
			c0.425-0.32,0.631-0.854,0.531-1.376L211.596,80.047z"/>
		<path fill="#FFFFFF" d="M295.582,81.511c-0.239-0.168-0.516-0.253-0.801-0.253c-0.211,0-0.422,0.048-0.616,0.145
			c-0.887,0.436-1.731,0.648-2.584,0.648c-1.436,0-2.643-0.352-3.694-1.08c-0.874-0.601-1.318-1.82-1.318-3.623V43.935
			c0-3.976-0.944-7.364-2.809-10.075c-1.832-2.642-4.258-4.794-7.212-6.397c-2.911-1.573-6.185-2.65-9.735-3.201
			c-3.472-0.54-6.886-0.813-10.145-0.813c-9.537,0-19.207,2.091-28.741,6.214c-0.615,0.267-0.953,0.933-0.808,1.587l3.525,15.645
			c0.097,0.424,0.384,0.779,0.778,0.962c0.187,0.084,0.385,0.126,0.582,0.126c0.227,0,0.451-0.055,0.656-0.164
			c2.89-1.539,6.192-2.84,9.816-3.868c3.591-1.02,7.178-1.536,10.666-1.536c2.771,0,5.322,0.535,7.574,1.59
			c1.939,0.912,2.882,2.797,2.882,5.766v3.551l-16.718,2.225c-7.065,0.916-12.904,3.203-17.354,6.796
			c-4.596,3.704-6.926,8.932-6.926,15.537c0,6.943,2.483,12.565,7.38,16.708c4.821,4.091,10.894,6.165,18.038,6.165
			c2.894,0,5.937-0.465,9.044-1.383c2.858-0.844,6.585-2.402,11.091-4.635c3.294,3.643,8.365,5.488,15.1,5.488
			c3.786,0,7.307-0.66,10.46-1.962c0.469-0.194,0.796-0.629,0.854-1.135l1.601-14.317C296.224,82.301,296.001,81.803,295.582,81.511
			z M248.459,70.441c1.609-1.411,3.72-2.255,6.5-2.587l8.641-1.34v13.667c-2.115,1.003-3.893,1.745-5.29,2.208
			c-1.45,0.481-2.974,0.725-4.525,0.725c-5.237,0-7.572-2.105-7.572-6.825C246.212,73.681,246.948,71.768,248.459,70.441z"/>
		<path fill="#FFFFFF" d="M356.051,80.047c-0.089-0.462-0.403-0.849-0.841-1.028c-0.17-0.07-0.35-0.104-0.528-0.104
			c-0.279,0-0.556,0.084-0.792,0.247c-1.111,0.766-2.446,1.313-3.972,1.624c-1.6,0.33-3.23,0.497-4.845,0.497
			c-3.301,0-5.763-0.609-7.316-1.813c-1.445-1.118-2.18-3.491-2.18-7.054V43.035h19.104c0.771,0,1.396-0.625,1.396-1.395V27.173
			c0-0.77-0.625-1.395-1.396-1.395h-19.104V1.395c0-0.771-0.624-1.395-1.395-1.395h-22.098c-0.769,0-1.395,0.624-1.395,1.395v24.384
			h-13.021c-0.771,0-1.396,0.625-1.396,1.395v14.468c0,0.77,0.624,1.395,1.396,1.395h13.021v32.013c0,8.792,2.36,15.38,7.021,19.58
			c4.617,4.166,11.451,6.278,20.315,6.278c4.82,0,8.746-0.512,11.67-1.523c2.899-1.006,5.721-2.535,8.388-4.543
			c0.426-0.32,0.63-0.854,0.531-1.376L356.051,80.047z"/>
		<path fill="#FFFFFF" d="M436.998,25.305h-21.783c-0.769,0-1.392,0.625-1.392,1.395V76.77c-5.423,2.802-10.012,4.222-13.658,4.222
			c-2.09,0-3.548-0.422-4.213-1.224c-0.512-0.612-1.122-1.989-1.122-5.073V26.699c0-0.77-0.624-1.395-1.395-1.395h-22.098
			c-0.77,0-1.395,0.625-1.395,1.395v53.302c0,7.079,1.65,12.276,4.904,15.448c3.241,3.167,7.882,4.772,13.787,4.772
			c4.624,0,9.309-0.831,13.916-2.468c3.823-1.354,7.604-3.042,11.272-5.031v4.779c0,0.77,0.623,1.395,1.392,1.395h21.783
			c0.771,0,1.396-0.625,1.396-1.395V26.699C438.394,25.93,437.77,25.305,436.998,25.305z"/>
		<path fill="#FFFFFF" d="M560.644,28.751c-3.246-3.165-7.883-4.77-13.783-4.77c-4.856,0-9.828,1.015-14.778,3.017
			c-4.368,1.771-8.547,3.771-12.445,5.951c-2.991-5.952-8.587-8.968-16.656-8.968c-4.414,0-9.043,0.828-13.749,2.462
			c-3.867,1.339-7.601,3.012-11.125,4.986v-4.731c0-0.77-0.622-1.395-1.395-1.395h-22.099c-0.771,0-1.395,0.625-1.395,1.395v70.802
			c0,0.77,0.624,1.395,1.395,1.395h22.099c0.772,0,1.395-0.625,1.395-1.395v-51.13c5.427-2.802,10.02-4.223,13.66-4.223
			c2.482,0,5.332,0.715,5.332,6.295v49.058c0,0.77,0.622,1.395,1.393,1.395h21.781c0.771,0,1.394-0.625,1.394-1.395V46.397
			c5.825-2.82,10.527-4.249,13.98-4.249c2.333,0,5.012,0.715,5.012,6.295v49.058c0,0.77,0.623,1.395,1.395,1.395h22.104
			c0.771,0,1.395-0.625,1.395-1.395v-53.3C565.551,37.125,563.9,31.927,560.644,28.751z"/>
	</g>
</g>
<g id="Layer_4">
</g>
</svg>
