<?xml version="1.0" encoding="utf-8"?>
<!-- Generator: Adobe Illustrator 16.0.0, SVG Export Plug-In . SVG Version: 6.00 Build 0)  -->
<!DOCTYPE svg PUBLIC "-//W3C//DTD SVG 1.1//EN" "http://www.w3.org/Graphics/SVG/1.1/DTD/svg11.dtd">
<svg version="1.1" id="Layer_1" xmlns="http://www.w3.org/2000/svg" xmlns:xlink="http://www.w3.org/1999/xlink" x="0px" y="0px"
	 width="328.128px" height="58.667px" viewBox="0 0 328.128 58.667" enable-background="new 0 0 328.128 58.667"
	 xml:space="preserve">
<path fill="#FFFFFF" stroke="#FFFFFF" stroke-miterlimit="10" d="M-210.527-18.147l6.179,3.155c0.558,0.285,1.15,0.419,1.734,0.419
	c1.388,0,2.728-0.762,3.403-2.082c0.959-1.879,0.215-4.179-1.665-5.139l-0.733-0.377c-7.146-4.332-15.517-6.834-24.465-6.834
	c-26.094,0-47.322,21.229-47.322,47.322v71.537c0,18.387-14.958,33.345-33.346,33.345c-18.384,0-33.343-14.958-33.343-33.345
	c0-2.109-1.71-3.819-3.818-3.819c-2.111,0-3.822,1.71-3.822,3.819c0,22.598,18.386,40.98,40.982,40.98
	c22.245,0,40.395-17.815,40.957-39.928c0.017-0.144,0.025-0.289,0.025-0.438V18.317c0-21.88,17.804-39.683,39.686-39.683
	c5.419,0,10.586,1.096,15.295,3.074C-210.697-18.241-210.614-18.193-210.527-18.147"/>
<path fill="#FFFFFF" stroke="#FFFFFF" stroke-width="1.6318" stroke-miterlimit="10" d="M-210.527-18.147l6.179,3.155
	c0.558,0.285,1.15,0.419,1.734,0.419c1.388,0,2.728-0.762,3.403-2.082c0.959-1.879,0.215-4.179-1.665-5.139l-0.733-0.377
	c-7.146-4.332-15.517-6.834-24.465-6.834c-26.094,0-47.322,21.229-47.322,47.322v71.537c0,18.387-14.958,33.345-33.346,33.345
	c-18.384,0-33.343-14.958-33.343-33.345c0-2.109-1.71-3.819-3.818-3.819c-2.111,0-3.822,1.71-3.822,3.819
	c0,22.598,18.386,40.98,40.982,40.98c22.245,0,40.395-17.815,40.957-39.928c0.017-0.144,0.025-0.289,0.025-0.438V18.317
	c0-21.88,17.804-39.683,39.686-39.683c5.419,0,10.586,1.096,15.295,3.074C-210.697-18.241-210.614-18.193-210.527-18.147z"/>
<path fill="#FFFFFF" stroke="#FFFFFF" stroke-miterlimit="10" d="M-191.222-0.473c0.103,0.178,0.221,0.341,0.349,0.496
	c2.15,4.119,3.593,8.657,4.184,13.457c-0.013,0.202-0.013,0.407,0.009,0.615l0.248,2.48c0.005,0.109,0.016,0.218,0.018,0.326
	c0.006-0.002,0.011-0.004,0.015-0.006l0.266,2.63c0.199,1.968,1.859,3.436,3.795,3.436c0.129,0,0.259-0.006,0.389-0.019
	c2.097-0.211,3.627-2.084,3.416-4.183l-0.288-2.861c-0.442-8.742-3.264-16.868-7.837-23.734c-0.002,0-0.002,0.002-0.002,0.002
	l-1.436-2.474c-1.061-1.825-3.398-2.446-5.221-1.386c-1.825,1.06-2.446,3.394-1.386,5.22L-191.222-0.473z"/>
<path fill="#FFFFFF" stroke="#FFFFFF" stroke-width="1.6318" stroke-miterlimit="10" d="M-191.222-0.473
	c0.103,0.178,0.221,0.341,0.349,0.496c2.15,4.119,3.593,8.657,4.184,13.457c-0.013,0.202-0.013,0.407,0.009,0.615l0.248,2.48
	c0.005,0.109,0.016,0.218,0.018,0.326c0.006-0.002,0.011-0.004,0.015-0.006l0.266,2.63c0.199,1.968,1.859,3.436,3.795,3.436
	c0.129,0,0.259-0.006,0.389-0.019c2.097-0.211,3.627-2.084,3.416-4.183l-0.288-2.861c-0.442-8.742-3.264-16.868-7.837-23.734
	c-0.002,0-0.002,0.002-0.002,0.002l-1.436-2.474c-1.061-1.825-3.398-2.446-5.221-1.386c-1.825,1.06-2.446,3.394-1.386,5.22
	L-191.222-0.473z"/>
<path fill="#80B04E" d="M-213.576,26.062c0-1.09,0.206-2.132,0.562-3.1c-6.173,0.561-11.009,5.75-11.009,12.069
	c0,6.695,5.427,12.121,12.122,12.121c6.692,0,12.119-5.426,12.119-12.121c0-0.457-0.027-0.91-0.076-1.354
	c-1.377,0.859-2.998,1.362-4.738,1.362C-209.556,35.039-213.576,31.02-213.576,26.062"/>
<path fill="none" stroke="#80B04E" stroke-width="1.6318" stroke-miterlimit="10" d="M-213.576,26.062c0-1.09,0.206-2.132,0.562-3.1
	c-6.173,0.561-11.009,5.75-11.009,12.069c0,6.695,5.427,12.121,12.122,12.121c6.692,0,12.119-5.426,12.119-12.121
	c0-0.457-0.027-0.91-0.076-1.354c-1.377,0.859-2.998,1.362-4.738,1.362C-209.556,35.039-213.576,31.02-213.576,26.062z"/>
<path fill="#FFFFFF" d="M-108.242,109.669c-2.556,0-4.636,2.082-4.636,4.636c0,17.938-14.593,32.53-32.527,32.53
	c-17.938,0-32.53-14.593-32.53-32.53l-0.002-36.716V52.772v-9.147l0.011-0.233l-0.047-3.818l-0.02,0.007l-0.027-1.676
	c-0.02-1.235-0.524-2.391-1.415-3.253c-0.895-0.864-1.986-1.296-3.298-1.306c-1.236,0.022-2.393,0.523-3.253,1.412
	c-0.86,0.89-1.323,2.063-1.303,3.301l0.023,14.713v25.974h0.007l0.056,37.218c0,0.325,0.031,0.643,0.08,0.82
	c1.296,22.047,19.62,39.318,41.718,39.318c23.047,0,41.798-18.751,41.798-41.798C-103.607,111.751-105.686,109.669-108.242,109.669"
	/>
<path fill="#FFFFFF" d="M-151.555,129.497c8.734,0,15.842-7.107,15.842-15.843c0-2.192-1.778-3.969-3.969-3.969
	s-3.969,1.776-3.969,3.969c0,4.36-3.547,7.904-7.904,7.904s-7.904-3.544-7.904-7.904c0-0.11-0.008-0.212-0.017-0.318
	c0.009-0.108,0.017-0.212,0.017-0.32V93.938c0-2.191-1.778-3.969-3.969-3.969s-3.969,1.777-3.969,3.969v19.078
	c0,0.108,0.008,0.212,0.017,0.32c-0.009,0.106-0.017,0.208-0.017,0.318C-167.396,122.39-160.289,129.497-151.555,129.497"/>
<path fill="#FFFFFF" d="M-300.417,107.557c-8.736,0-15.841-7.107-15.841-15.84c0-2.194,1.777-3.969,3.968-3.969
	c2.191,0,3.969,1.775,3.969,3.969c0,4.358,3.546,7.904,7.904,7.904s7.904-3.546,7.904-7.904c0-0.109,0.009-0.216,0.018-0.32
	c-0.009-0.107-0.018-0.213-0.018-0.32V72c0-2.191,1.778-3.969,3.969-3.969c2.191,0,3.969,1.777,3.969,3.969v19.077
	c0,0.106-0.01,0.212-0.018,0.32c0.008,0.104,0.018,0.21,0.018,0.32C-284.574,100.449-291.681,107.557-300.417,107.557"/>
<path fill="#FFFFFF" d="M-240.521,168.52v-41.084c0-1.988-2.037-3.548-4.634-3.548c-2.601,0-4.637,1.56-4.637,3.548v43.392
	l-0.041,1.919c-0.02,0.797,0.293,1.549,0.903,2.178c0.861,0.891,2.195,1.411,3.659,1.428l0.01-0.813l0.062,0.815
	c2.463,0,4.443-1.421,4.622-3.274l0.056,0.023l0.043-4.132C-240.475,168.779-240.492,168.581-240.521,168.52"/>
<path fill="#FFFFFF" d="M-178.658,200.329c-2.556,0-4.634,2.08-4.634,4.637c0,6.69-5.439,12.132-12.126,12.132
	s-12.126-5.441-12.126-12.132c0-0.17-0.011-0.338-0.027-0.504l0.002,0.002c0.017,0,0.025-0.163,0.025-0.327l0.02-7.35l0.002-0.675
	h0.017l0.009-3.269h0.007v-21.939v-6.271c0-2.518-2.076-4.562-4.633-4.562c-2.558,0-4.632,2.044-4.632,4.562v6.271v19.855
	l-0.053,5.353v0.675v7.35c0,0.17,0.011,0.338,0.027,0.504v-0.004c-0.017,0-0.027,0.165-0.027,0.329
	c0,11.801,9.596,21.402,21.39,21.402c11.795,0,21.392-9.602,21.392-21.402C-174.026,202.409-176.104,200.329-178.658,200.329"/>
<path fill="#FFFFFF" d="M-244.51,184.606l0.013-0.018c0,0-0.052-0.027-0.137-0.065c-0.459-0.295-0.97-0.506-1.527-0.625l0.002-0.021
	c-0.081-0.018-0.151-0.011-0.229-0.023c-0.101-0.016-0.192-0.049-0.292-0.058c-0.093-0.009-0.183,0.004-0.274,0
	c-0.158-0.007-0.313-0.009-0.461,0c-0.131,0.006-0.257,0.021-0.382,0.04c-0.218,0.03-0.425,0.068-0.621,0.126
	c-0.04,0.011-0.081,0.021-0.12,0.033c-0.997,0.311-1.703,0.858-2.047,1.188c-0.028,0.025-0.054,0.053-0.083,0.078
	c-0.102,0.104-0.174,0.183-0.174,0.183l0.024,0.011c-1.495,1.724-1.142,4.532-1.142,4.532v0.378l-0.288,3.034
	c-0.008,0.085-0.008,0.17,0.004,0.155c-1.196,5.55-6.183,9.578-11.857,9.578c-6.691,0-12.135-5.443-12.135-12.134
	c0-2.557-2.078-4.635-4.634-4.635s-4.634,2.078-4.634,4.635c0,11.803,9.602,21.404,21.403,21.404s21.402-9.602,21.396-21.424
	l0.2-2.133C-242.339,187.115-243.169,185.53-244.51,184.606"/>
<path fill="#80B04E" d="M46.688,20.222c-1.274-2.926-3.026-5.516-5.207-7.697c-2.182-2.182-4.771-3.934-7.698-5.209
	c-2.957-1.288-6.142-1.94-9.47-1.94c-4.178,0-8.135,1.027-11.701,3.021c-0.904,0.452-1.56,1.249-1.842,2.241
	c-0.268,0.929-0.185,1.864,0.271,2.773l0.125,0.206c0.514,0.772,1.256,1.315,2.143,1.567c0.924,0.266,1.828,0.205,2.813-0.292
	c2.494-1.394,5.25-2.1,8.191-2.1c2.313,0,4.515,0.444,6.543,1.321c2.053,0.888,3.867,2.112,5.394,3.639
	c1.528,1.529,2.753,3.344,3.64,5.395c0.877,2.026,1.32,4.228,1.32,6.543c0,2.318-0.445,4.533-1.324,6.582
	c-0.885,2.068-2.109,3.892-3.636,5.418c-1.528,1.529-3.342,2.753-5.394,3.639c-2.026,0.877-4.229,1.321-6.543,1.321
	c-2.317,0-4.533-0.445-6.582-1.325c-2.072-0.887-3.896-2.11-5.418-3.635c-1.525-1.524-2.748-3.347-3.636-5.418
	c-0.879-2.049-1.323-4.264-1.323-6.582c0-1.429,0.186-2.849,0.551-4.221c0.367-1.379,0.918-2.73,1.666-4.076
	c0.421-0.84,0.503-1.775,0.236-2.709c-0.287-0.994-0.933-1.784-1.779-2.206c-1.801-0.961-3.83-0.449-4.967,1.323l-0.08,0.139
	c-0.939,1.783-1.676,3.675-2.192,5.622C0.265,25.538,0,27.599,0,29.691c0,3.365,0.64,6.559,1.903,9.489
	c1.254,2.911,3.008,5.504,5.213,7.708c2.205,2.207,4.799,3.961,7.707,5.213c2.931,1.264,6.125,1.904,9.49,1.904
	c3.319,0,6.5-0.64,9.453-1.901c2.938-1.256,5.536-3.014,7.725-5.225c2.175-2.198,3.923-4.783,5.195-7.683
	c1.289-2.937,1.942-6.136,1.942-9.506C48.629,26.366,47.976,23.18,46.688,20.222"/>
<path fill="#FFFFFF" d="M120.271,15.271c-0.696,0.695-1.079,1.642-1.079,2.663v32.394c0,0.983,0.383,1.906,1.075,2.596
	c0.695,0.698,1.642,1.082,2.666,1.082c0.98,0,1.902-0.383,2.599-1.079c0.696-0.695,1.078-1.618,1.078-2.599V17.934
	c0-1.019-0.383-1.966-1.082-2.666C124.104,13.85,121.628,13.91,120.271,15.271"/>
<path fill="#FFFFFF" d="M143.157,6.446c-0.697-0.69-1.617-1.07-2.59-1.07h-35.332c-0.979,0-1.902,0.384-2.602,1.081
	c-0.694,0.694-1.077,1.617-1.077,2.597c0,1.023,0.383,1.969,1.076,2.659c0.694,0.697,1.618,1.081,2.603,1.081h35.332
	c0.981,0,1.904-0.384,2.6-1.08c0.695-0.695,1.078-1.64,1.078-2.66C144.245,8.063,143.872,7.165,143.157,6.446"/>
<path fill="#FFFFFF" d="M186.361,48.826L167.906,7.438c-0.661-1.311-1.877-2.063-3.335-2.063c-1.503,0-2.752,0.771-3.455,2.178
	l-11.24,25.294l-7.18,16.024l-0.07,0.191c-0.254,0.759-0.265,1.553-0.035,2.359c0.297,1.036,1.043,1.878,2.096,2.329l0.154,0.058
	c0.393,0.13,0.818,0.196,1.266,0.196c1.464,0,2.689-0.771,3.388-2.176l6.152-13.798h10.01c1.022,0,1.969-0.384,2.667-1.082
	c0.693-0.695,1.074-1.616,1.074-2.595c0-1.033-0.372-1.953-1.084-2.671c-0.696-0.69-1.639-1.07-2.657-1.07h-6.68l5.593-12.566
	l15.061,33.881c0.655,1.32,1.873,2.077,3.342,2.077c0.631,0,1.141-0.103,1.474-0.275c0.956-0.412,1.674-1.176,2.022-2.152
	C186.81,50.617,186.761,49.617,186.361,48.826"/>
<path fill="#FFFFFF" d="M226.16,6.449c-0.696-0.692-1.617-1.073-2.595-1.073h-35.332c-0.979,0-1.902,0.383-2.602,1.081
	c-0.694,0.695-1.075,1.617-1.075,2.596c0,1.024,0.382,1.97,1.072,2.659c0.695,0.697,1.62,1.082,2.604,1.082h35.332
	c0.979,0,1.903-0.383,2.604-1.081c0.692-0.696,1.073-1.641,1.073-2.66C227.242,8.064,226.87,7.167,226.16,6.449"/>
<path fill="#FFFFFF" d="M205.932,14.193c-1.024,0-1.971,0.384-2.661,1.078c-0.696,0.693-1.08,1.641-1.08,2.663v32.394
	c0,0.982,0.383,1.905,1.072,2.593c0.694,0.7,1.643,1.085,2.669,1.085c0.98,0,1.903-0.384,2.601-1.081
	c0.694-0.696,1.077-1.618,1.077-2.597V17.934c0-1.031-0.372-1.951-1.082-2.665C207.832,14.575,206.911,14.193,205.932,14.193"/>
<path fill="#FFFFFF" d="M244.091,46.587c-0.591,0-1.104-0.104-1.618-0.329c-0.526-0.229-0.987-0.54-1.375-0.927
	c-0.383-0.382-0.695-0.845-0.926-1.373c-0.223-0.512-0.326-1.025-0.326-1.617V9.053c0-0.99-0.372-1.889-1.085-2.605
	c-1.368-1.358-3.834-1.415-5.258,0.009c-0.693,0.695-1.075,1.617-1.075,2.597v33.288c0,1.581,0.305,3.104,0.907,4.524
	c0.598,1.412,1.44,2.667,2.502,3.729c1.065,1.065,2.32,1.908,3.729,2.502c1.422,0.604,2.945,0.909,4.525,0.909
	c0.979,0,1.903-0.383,2.599-1.079c0.696-0.694,1.079-1.618,1.079-2.599c0-1.02-0.383-1.966-1.081-2.665
	C245.992,46.969,245.069,46.587,244.091,46.587"/>
<path fill="#FFFFFF" d="M266.043,6.448c-0.696-0.691-1.617-1.072-2.593-1.072c-1.068,0-2.036,0.417-2.731,1.185
	c-0.618,0.694-0.946,1.556-0.946,2.493v33.288c0,0.572-0.109,1.117-0.325,1.614c-0.227,0.518-0.539,0.972-0.928,1.347
	c-0.415,0.4-0.898,0.723-1.438,0.957c-0.501,0.218-1.045,0.328-1.618,0.328c-0.984,0-1.907,0.383-2.595,1.073
	c-0.697,0.695-1.082,1.643-1.082,2.667c0,0.984,0.383,1.907,1.072,2.595c0.695,0.698,1.62,1.083,2.604,1.083
	c1.579,0,3.1-0.306,4.523-0.907c1.414-0.599,2.67-1.441,3.729-2.503c1.063-1.063,1.905-2.316,2.504-3.73
	c0.602-1.422,0.906-2.943,0.906-4.523V9.053C267.127,8.063,266.755,7.165,266.043,6.448"/>
<path fill="#FFFFFF" d="M328.128,50.333c0,1.777-1.396,3.173-3.212,3.173c-1.796,0-3.229-1.396-3.229-3.173
	c0-1.739,1.434-3.135,3.229-3.135C326.732,47.198,328.128,48.593,328.128,50.333 M322.489,50.333c0,1.395,1.032,2.504,2.446,2.504
	c1.376,0,2.39-1.109,2.39-2.485c0-1.396-1.014-2.522-2.409-2.522C323.521,47.829,322.489,48.956,322.489,50.333 M324.419,51.976
	h-0.726v-3.135c0.286-0.058,0.688-0.096,1.204-0.096c0.593,0,0.86,0.096,1.09,0.229c0.172,0.134,0.305,0.382,0.305,0.688
	c0,0.344-0.267,0.611-0.649,0.726v0.037c0.306,0.116,0.479,0.346,0.573,0.766c0.096,0.479,0.153,0.669,0.229,0.784h-0.783
	c-0.096-0.115-0.153-0.401-0.249-0.765c-0.058-0.344-0.248-0.497-0.649-0.497h-0.345V51.976z M324.438,50.198h0.344
	c0.402,0,0.727-0.134,0.727-0.458c0-0.287-0.21-0.479-0.669-0.479c-0.191,0-0.325,0.02-0.401,0.039V50.198z"/>
<path fill="#FFFFFF" d="M316.895,6.51c-1.247-1.237-3.313-1.463-4.983-0.275l-15.498,16.244L281.18,6.449
	c-1.395-1.386-3.861-1.387-5.258,0.008c-0.694,0.695-1.076,1.617-1.076,2.597c0,0.983,0.377,1.9,1.031,2.55l3.679,3.877l2.627,2.767
	l0.638,0.672l0.18,0.189l10.622,11.191c0.666,0.784,1.657,1.216,2.791,1.216c1.035,0,1.962-0.38,2.709-1.126l11.44-12.037v31.976
	c0,0.984,0.383,1.908,1.073,2.596c0.695,0.697,1.619,1.082,2.604,1.082c1.021,0,1.967-0.383,2.662-1.079
	c0.695-0.695,1.078-1.618,1.078-2.599V9.117C317.979,8.126,317.607,7.228,316.895,6.51"/>
<path fill="#FFFFFF" d="M282.224,23.107c-0.091-0.734-0.439-1.416-1.034-1.94c-0.694-0.617-1.619-0.958-2.604-0.958
	c-1.021,0-1.966,0.339-2.662,0.955c-0.597,0.53-0.947,1.212-1.039,1.943h-0.032h-0.007v0.013v0.346v2.899v2.43v16.625v5.33
	c0,0.871,0.384,1.688,1.074,2.298c0.695,0.617,1.619,0.958,2.604,0.958c1.021,0,1.967-0.339,2.662-0.955s1.078-1.434,1.078-2.301
	v-5.33V28.794v-2.43v-2.899V23.12v-0.013h-0.007H282.224z"/>
<path fill="#FFFFFF" d="M67.278,16.219c0.979,0.212,1.967,0.024,2.834-0.555c2.785-1.905,5.946-2.871,9.398-2.871
	c3.904,0,7.421,1.21,10.454,3.597c0.462,0.41,1.24,0.877,2.39,0.877c1.188,0,2.238-0.531,2.895-1.462
	c0.628-0.76,0.896-1.718,0.756-2.713c-0.123-0.849-0.508-1.618-1.157-2.271l-0.194-0.167c-2.17-1.698-4.555-3.016-7.088-3.915
	c-4.754-1.686-10.191-1.811-15.154-0.329c-2.314,0.692-4.5,1.742-6.48,3.108c-0.81,0.542-1.367,1.364-1.572,2.313
	c-0.225,1.051,0.026,2.103,0.653,2.887C65.558,15.5,66.34,16.018,67.278,16.219"/>
<path fill="#FFFFFF" d="M95.327,43.335c-0.615-0.767-1.427-1.251-2.354-1.401c-1.006-0.161-2.021,0.12-2.856,0.792
	c-0.431,0.346-0.873,0.666-1.325,0.963l-0.017-0.017c-1.785,1.154-3.704,1.97-5.72,2.405c-2.106,0.457-4.295,0.504-6.504,0.139
	c-2.177-0.359-4.268-1.179-6.216-2.433c-1.001-0.646-1.928-1.377-2.755-2.174c-0.285-0.273-0.559-0.561-0.822-0.86
	c-1.152-1.328-2.1-2.843-2.824-4.517c-0.875-2.025-1.319-4.227-1.319-6.542c0-1.191,0.112-2.366,0.334-3.493
	c0.217-1.102,0.567-2.195,1.046-3.265c0.874-1.999,0.087-4.006-1.913-4.882c-1.979-0.863-4.03-0.036-4.896,1.951
	c-1.32,3.158-1.99,6.418-1.99,9.688c0,3.365,0.641,6.558,1.904,9.489c1.254,2.911,3.008,5.505,5.211,7.708
	c2.207,2.207,4.802,3.961,7.709,5.213c2.849,1.229,5.947,1.862,9.209,1.897v0.005c0,0,4.432,0.245,9.092-1.773l-0.012-0.011
	c0.31-0.12,0.621-0.23,0.926-0.362c0.078-0.035,0.152-0.078,0.23-0.113c1.284-0.577,2.531-1.25,3.721-2.05
	c0.317-0.214,0.611-0.461,0.918-0.69l-0.006-0.007c0.223-0.167,0.451-0.316,0.67-0.491c0.838-0.674,1.328-1.607,1.384-2.622
	C96.204,44.951,95.919,44.069,95.327,43.335"/>
</svg>
