<?xml version="1.0" encoding="utf-8"?>
<!-- Generator: Adobe Illustrator 16.0.0, SVG Export Plug-In . SVG Version: 6.00 Build 0)  -->
<!DOCTYPE svg PUBLIC "-//W3C//DTD SVG 1.1//EN" "http://www.w3.org/Graphics/SVG/1.1/DTD/svg11.dtd">
<svg version="1.1" id="Layer_1" xmlns="http://www.w3.org/2000/svg" xmlns:xlink="http://www.w3.org/1999/xlink" x="0px" y="0px"
	 width="256px" height="256px" viewBox="0 0 256 256" enable-background="new 0 0 256 256" xml:space="preserve">
<path fill="#FFFFFF" stroke="#FFFFFF" stroke-miterlimit="10" d="M143.139,11.518l6.179,3.155c0.558,0.285,1.15,0.419,1.734,0.419
	c1.388,0,2.728-0.762,3.403-2.082c0.959-1.879,0.215-4.179-1.665-5.139l-0.733-0.377c-7.146-4.332-15.517-6.834-24.465-6.834
	c-26.094,0-47.322,21.229-47.322,47.322v71.537c0,18.387-14.958,33.345-33.346,33.345c-18.384,0-33.343-14.958-33.343-33.345
	c0-2.109-1.71-3.819-3.818-3.819c-2.111,0-3.822,1.71-3.822,3.819c0,22.598,18.386,40.98,40.982,40.98
	c22.245,0,40.395-17.815,40.957-39.928c0.017-0.144,0.025-0.289,0.025-0.438V47.982c0-21.88,17.804-39.683,39.686-39.683
	c5.419,0,10.586,1.096,15.295,3.074C142.969,11.424,143.052,11.472,143.139,11.518"/>
<path fill="#FFFFFF" stroke="#FFFFFF" stroke-width="1.6318" stroke-miterlimit="10" d="M143.139,11.518l6.179,3.155
	c0.558,0.285,1.15,0.419,1.734,0.419c1.388,0,2.728-0.762,3.403-2.082c0.959-1.879,0.215-4.179-1.665-5.139l-0.733-0.377
	c-7.146-4.332-15.517-6.834-24.465-6.834c-26.094,0-47.322,21.229-47.322,47.322v71.537c0,18.387-14.958,33.345-33.346,33.345
	c-18.384,0-33.343-14.958-33.343-33.345c0-2.109-1.71-3.819-3.818-3.819c-2.111,0-3.822,1.71-3.822,3.819
	c0,22.598,18.386,40.98,40.982,40.98c22.245,0,40.395-17.815,40.957-39.928c0.017-0.144,0.025-0.289,0.025-0.438V47.982
	c0-21.88,17.804-39.683,39.686-39.683c5.419,0,10.586,1.096,15.295,3.074C142.969,11.424,143.052,11.472,143.139,11.518z"/>
<path fill="#FFFFFF" stroke="#FFFFFF" stroke-miterlimit="10" d="M162.444,29.192c0.103,0.178,0.221,0.341,0.349,0.496
	c2.15,4.119,3.593,8.657,4.184,13.457c-0.013,0.202-0.013,0.407,0.009,0.615l0.248,2.48c0.005,0.109,0.016,0.218,0.018,0.326
	c0.006-0.002,0.011-0.004,0.015-0.006l0.266,2.63c0.199,1.968,1.859,3.436,3.795,3.436c0.129,0,0.259-0.006,0.389-0.019
	c2.097-0.211,3.627-2.084,3.416-4.183l-0.288-2.861c-0.442-8.742-3.264-16.868-7.837-23.734c-0.002,0-0.002,0.002-0.002,0.002
	l-1.436-2.474c-1.061-1.825-3.398-2.446-5.221-1.386c-1.825,1.06-2.446,3.394-1.386,5.22L162.444,29.192z"/>
<path fill="#FFFFFF" stroke="#FFFFFF" stroke-width="1.6318" stroke-miterlimit="10" d="M162.444,29.192
	c0.103,0.178,0.221,0.341,0.349,0.496c2.15,4.119,3.593,8.657,4.184,13.457c-0.013,0.202-0.013,0.407,0.009,0.615l0.248,2.48
	c0.005,0.109,0.016,0.218,0.018,0.326c0.006-0.002,0.011-0.004,0.015-0.006l0.266,2.63c0.199,1.968,1.859,3.436,3.795,3.436
	c0.129,0,0.259-0.006,0.389-0.019c2.097-0.211,3.627-2.084,3.416-4.183l-0.288-2.861c-0.442-8.742-3.264-16.868-7.837-23.734
	c-0.002,0-0.002,0.002-0.002,0.002l-1.436-2.474c-1.061-1.825-3.398-2.446-5.221-1.386c-1.825,1.06-2.446,3.394-1.386,5.22
	L162.444,29.192z"/>
<path fill="#80B04E" d="M140.09,55.727c0-1.09,0.206-2.132,0.562-3.1c-6.173,0.561-11.009,5.75-11.009,12.069
	c0,6.695,5.427,12.121,12.122,12.121c6.692,0,12.119-5.426,12.119-12.121c0-0.457-0.027-0.91-0.076-1.354
	c-1.377,0.859-2.998,1.362-4.738,1.362C144.11,64.704,140.09,60.685,140.09,55.727"/>
<path fill="none" stroke="#80B04E" stroke-width="1.6318" stroke-miterlimit="10" d="M140.09,55.727c0-1.09,0.206-2.132,0.562-3.1
	c-6.173,0.561-11.009,5.75-11.009,12.069c0,6.695,5.427,12.121,12.122,12.121c6.692,0,12.119-5.426,12.119-12.121
	c0-0.457-0.027-0.91-0.076-1.354c-1.377,0.859-2.998,1.362-4.738,1.362C144.11,64.704,140.09,60.685,140.09,55.727z"/>
<path fill="#FFFFFF" d="M245.424,139.334c-2.556,0-4.636,2.082-4.636,4.636c0,17.938-14.593,32.53-32.527,32.53
	c-17.938,0-32.53-14.593-32.53-32.53l-0.002-36.716V82.438v-9.147l0.011-0.233l-0.047-3.818l-0.02,0.007l-0.027-1.676
	c-0.02-1.235-0.524-2.391-1.415-3.253c-0.895-0.864-1.986-1.296-3.298-1.306c-1.236,0.022-2.393,0.523-3.253,1.412
	c-0.86,0.89-1.323,2.063-1.303,3.301l0.023,14.713v25.974h0.007l0.056,37.218c0,0.325,0.031,0.643,0.08,0.82
	c1.296,22.047,19.62,39.318,41.718,39.318c23.047,0,41.798-18.751,41.798-41.798C250.059,141.416,247.98,139.334,245.424,139.334"/>
<path fill="#FFFFFF" d="M202.111,159.162c8.734,0,15.842-7.107,15.842-15.843c0-2.192-1.778-3.969-3.969-3.969
	s-3.969,1.776-3.969,3.969c0,4.36-3.547,7.904-7.904,7.904s-7.904-3.544-7.904-7.904c0-0.11-0.008-0.212-0.017-0.318
	c0.009-0.108,0.017-0.212,0.017-0.32v-19.078c0-2.191-1.778-3.969-3.969-3.969s-3.969,1.777-3.969,3.969v19.078
	c0,0.108,0.008,0.212,0.017,0.32c-0.009,0.106-0.017,0.208-0.017,0.318C186.27,152.055,193.377,159.162,202.111,159.162"/>
<path fill="#FFFFFF" d="M53.25,137.222c-8.736,0-15.841-7.107-15.841-15.84c0-2.194,1.777-3.969,3.968-3.969
	c2.191,0,3.969,1.775,3.969,3.969c0,4.358,3.546,7.904,7.904,7.904s7.904-3.546,7.904-7.904c0-0.109,0.009-0.216,0.018-0.32
	c-0.009-0.107-0.018-0.213-0.018-0.32v-19.077c0-2.191,1.778-3.969,3.969-3.969c2.191,0,3.969,1.777,3.969,3.969v19.077
	c0,0.106-0.01,0.212-0.018,0.32c0.008,0.104,0.018,0.21,0.018,0.32C69.092,130.114,61.985,137.222,53.25,137.222"/>
<path fill="#FFFFFF" d="M113.145,198.185v-41.084c0-1.988-2.037-3.548-4.634-3.548c-2.601,0-4.637,1.56-4.637,3.548v43.392
	l-0.041,1.919c-0.02,0.797,0.293,1.549,0.903,2.178c0.861,0.891,2.195,1.411,3.659,1.428l0.01-0.813l0.062,0.815
	c2.463,0,4.443-1.421,4.622-3.274l0.056,0.023l0.043-4.132C113.191,198.444,113.174,198.246,113.145,198.185"/>
<path fill="#FFFFFF" d="M175.008,229.994c-2.556,0-4.634,2.08-4.634,4.637c0,6.69-5.439,12.132-12.126,12.132
	s-12.126-5.441-12.126-12.132c0-0.17-0.011-0.338-0.027-0.504l0.002,0.002c0.017,0,0.025-0.163,0.025-0.327l0.02-7.35l0.002-0.675
	h0.017l0.009-3.269h0.007v-21.939v-6.271c0-2.518-2.076-4.562-4.633-4.562c-2.558,0-4.632,2.044-4.632,4.562v6.271v19.855
	l-0.053,5.353v0.675v7.35c0,0.17,0.011,0.338,0.027,0.504v-0.004c-0.017,0-0.027,0.165-0.027,0.329
	c0,11.801,9.596,21.402,21.39,21.402c11.795,0,21.392-9.602,21.392-21.402C179.64,232.074,177.563,229.994,175.008,229.994"/>
<path fill="#FFFFFF" d="M109.156,214.271l0.013-0.018c0,0-0.052-0.027-0.137-0.065c-0.459-0.295-0.97-0.506-1.527-0.625l0.002-0.021
	c-0.081-0.018-0.151-0.011-0.229-0.023c-0.101-0.016-0.192-0.049-0.292-0.058c-0.093-0.009-0.183,0.004-0.274,0
	c-0.158-0.007-0.313-0.009-0.461,0c-0.131,0.006-0.257,0.021-0.382,0.04c-0.218,0.03-0.425,0.068-0.621,0.126
	c-0.04,0.011-0.081,0.021-0.12,0.033c-0.997,0.311-1.703,0.858-2.047,1.188c-0.028,0.025-0.054,0.053-0.083,0.078
	c-0.102,0.104-0.174,0.183-0.174,0.183l0.024,0.011c-1.495,1.724-1.142,4.532-1.142,4.532v0.378l-0.288,3.034
	c-0.008,0.085-0.008,0.17,0.004,0.155c-1.196,5.55-6.183,9.578-11.857,9.578c-6.691,0-12.135-5.443-12.135-12.134
	c0-2.557-2.078-4.635-4.634-4.635s-4.634,2.078-4.634,4.635c0,11.803,9.602,21.404,21.403,21.404s21.402-9.602,21.396-21.424
	l0.2-2.133C111.327,216.78,110.497,215.195,109.156,214.271"/>
</svg>
